<svg width="678" height="240" viewBox="0 0 678 240" fill="none" xmlns="http://www.w3.org/2000/svg">
<path d="M141.8 198.2C138.067 198.2 134.933 196.6 132.4 193.4C129.867 190.333 128 186.533 126.8 182C125.6 177.467 125 173.133 125 169C125 161 126.133 152.133 128.4 142.4C130.667 132.667 133.467 122.733 136.8 112.6C140.267 102.467 143.8 92.7333 147.4 83.4C151.133 73.9333 154.467 65.4 157.4 57.8C160.333 50.2 162.4 44.1333 163.6 39.6C163.867 38.4 164.067 37.3333 164.2 36.4C164.333 35.3333 164.4 34.4667 164.4 33.8C164.4 31.4 163.667 30.2 162.2 30.2C160.067 30.2 156.867 32.4 152.6 36.8C148.333 41.0667 143.533 46.9333 138.2 54.4C133 61.7333 127.8 70.0667 122.6 79.4C117.4 88.7333 112.733 98.4 108.6 108.4C104.6 118.267 101.8 127.933 100.2 137.4C99.6667 140.867 98.7333 143.467 97.4 145.2C96.2 146.933 95 147.8 93.8 147.8C92.7333 147.8 91.8 147.133 91 145.8C90.2 144.467 89.8 142.533 89.8 140C89.6667 129.333 89.3333 118.667 88.8 108C88.2667 97.2 87.0667 86.8667 85.2 77C82.4 61.8 79.2 51 75.6 44.6C72.1333 38.2 68.5333 35 64.8 35C61.3333 35 57.9333 37.1333 54.6 41.4C51.4 45.5333 48.3333 51.0667 45.4 58C42.4667 64.8 39.8667 72.2667 37.6 80.4C35.3333 88.5333 33.5333 96.6 32.2 104.6C31 112.6 30.4 119.733 30.4 126C30.4 127.467 30.4 128.933 30.4 130.4C30.5333 131.733 30.6667 133 30.8 134.2C30.9333 134.867 31 135.6 31 136.4C31 137.067 31 137.733 31 138.4C31 141.467 30.6 144.2 29.8 146.6C29 149 28.0667 150.2 27 150.2C25.9333 150.2 24.9333 149 24 146.6C22.9333 144.2 22.0667 141.2 21.4 137.6C20.7333 133.867 20.2 130.733 19.8 128.2C19.5333 126.333 18.9333 123.533 18 119.8C17.2 116.067 16.2 112 15 107.6C13.8 103.067 12.4 98.6667 10.8 94.4C9.33333 90 7.73333 86.2667 6 83.2C4.26667 80 2.46667 77.9333 0.6 77C0.333333 76.7333 0.2 76.4667 0.2 76.2C0.2 75.5333 0.866667 75.1333 2.2 75C3.66667 74.8667 4.66667 74.9333 5.2 75.2C8 76 10.4667 78 12.6 81.2C14.8667 84.2667 16.8 87.9333 18.4 92.2C20.1333 96.3333 21.6 100.467 22.8 104.6C24 108.6 25 111.933 25.8 114.6C27.2667 105.4 29 96.3333 31 87.4C33.1333 78.3333 35.9333 69.4667 39.4 60.8C44.3333 48.8 49.2 40.2667 54 35.2C58.8 30 63.3333 27.4 67.6 27.4C72.1333 27.4 76.2 29.7333 79.8 34.4C83.5333 38.9333 86.6667 45 89.2 52.6C91.8667 60.0667 93.6667 68.2 94.6 77C95.1333 81.5333 95.4667 86.4667 95.6 91.8C95.7333 97 95.8 102.133 95.8 107.2V122.8C95.8 125.067 95.8 127.133 95.8 129C95.8 130.867 95.8667 132.4 96 133.6C96.9333 130.4 98.4667 125.933 100.6 120.2C102.733 114.333 105.333 107.8 108.4 100.6C111.467 93.2667 114.933 85.7333 118.8 78C122.667 70.2667 126.8 62.8667 131.2 55.8C135.733 48.6 140.4 42.3333 145.2 37C150.133 31.5333 155.067 27.5333 160 25C162.933 23.5333 165.667 22.8 168.2 22.8C171.133 22.8 173.6 23.6667 175.6 25.4C177.6 27 178.6 29.4 178.6 32.6C178.6 37.4 177.6 42.2 175.6 47C173.6 51.6667 171.2 56.2667 168.4 60.8C165.6 65.3333 163 69.7333 160.6 74C156.333 81.7333 152.067 90.6667 147.8 100.8C143.533 110.933 139.933 121.4 137 132.2C134.2 143 132.8 153.4 132.8 163.4C132.8 166.6 132.933 169.733 133.2 172.8C133.6 175.867 134.2 178.8 135 181.6C136.2 185.867 137.667 188.8 139.4 190.4C141.267 192.133 143.133 193 145 193C147 193 148.867 192.4 150.6 191.2C152.333 190.133 153.733 188.933 154.8 187.6C155.867 186.4 156.333 185.667 156.2 185.4C157.4 185 157.867 185.333 157.6 186.4C157.333 187.6 156.8 188.8 156 190C155.2 191.333 154.667 192.133 154.4 192.4C149.733 196.267 145.533 198.2 141.8 198.2ZM183.938 162.6C179.138 162.6 174.938 159.8 171.338 154.2C167.871 148.467 166.138 139.467 166.138 127.2C166.138 119.2 167.138 112.8 169.138 108C171.138 103.067 173.604 99.4667 176.538 97.2C179.471 94.9333 182.271 93.8 184.938 93.8C187.604 93.8 189.871 94.7333 191.738 96.6C193.604 98.3333 194.538 100.867 194.538 104.2C194.538 107.4 193.604 110.8 191.738 114.4C189.871 117.867 187.604 121.067 184.938 124C182.404 126.8 179.871 128.667 177.338 129.6C176.804 129.867 176.138 130 175.338 130C174.804 130 174.538 129.8 174.538 129.4C174.538 128.333 175.604 127.133 177.738 125.8C180.404 123.933 182.938 121.133 185.338 117.4C187.738 113.533 188.938 110.133 188.938 107.2C188.938 105.467 188.538 104.133 187.738 103.2C186.938 102.133 186.004 101.6 184.938 101.6C182.938 101.6 180.738 103.2 178.338 106.4C176.071 109.467 174.404 114.8 173.338 122.4C173.071 124.533 172.804 126.6 172.538 128.6C172.404 130.467 172.338 132.333 172.338 134.2C172.338 141.667 173.471 147.533 175.738 151.8C178.004 155.933 181.004 158 184.738 158C187.938 158 191.538 156.133 195.538 152.4C199.538 148.533 203.471 142.533 207.338 134.4C208.271 132.267 209.338 131.2 210.538 131.2C211.338 131.2 211.738 131.733 211.738 132.8C211.738 133.733 211.471 134.733 210.938 135.8C207.471 144.333 203.271 150.933 198.338 155.6C193.404 160.267 188.604 162.6 183.938 162.6ZM236.386 191.8C234.653 191.8 232.986 191.133 231.386 189.8C229.919 188.467 228.653 187.133 227.586 185.8C223.319 180.867 219.719 174.333 216.786 166.2C213.986 158.067 211.853 149.133 210.386 139.4C208.919 129.533 208.186 119.533 208.186 109.4C208.186 99.9333 208.786 90.7333 209.986 81.8C211.319 72.8667 213.319 64.7333 215.986 57.4C218.653 50.0667 221.986 44.2 225.986 39.8C231.186 33.9333 236.186 31 240.986 31C243.919 31 246.253 32.3333 247.986 35C249.853 37.5333 250.786 41.6 250.786 47.2C250.786 52.5333 249.719 59.3333 247.586 67.6C245.586 75.7333 242.119 85.4667 237.186 96.8C235.453 100.533 233.586 104.267 231.586 108C229.719 111.733 227.719 115.667 225.586 119.8C224.786 121.4 224.119 122.2 223.586 122.2C223.319 122.2 223.186 121.933 223.186 121.4C223.186 120.333 223.653 118.933 224.586 117.2C236.719 94.4 242.786 71.7333 242.786 49.2C242.786 40.2667 240.919 35.8 237.186 35.8C234.519 35.8 231.386 38.4 227.786 43.6C222.853 50.9333 219.453 59.6667 217.586 69.8C215.719 79.8 214.786 89.9333 214.786 100.2C214.786 107.933 215.119 115.467 215.786 122.8C216.453 130 217.253 136.533 218.186 142.4C218.586 144.933 219.186 148.333 219.986 152.6C220.786 156.867 221.853 161.333 223.186 166C224.519 170.8 225.986 175.133 227.586 179C229.319 183 231.186 185.867 233.186 187.6C233.719 188 234.253 188.4 234.786 188.8C235.453 189.333 236.186 189.667 236.986 189.8C238.186 189.8 238.786 190.133 238.786 190.8C238.786 191.467 237.986 191.8 236.386 191.8ZM256.78 192C255.446 192 254.046 191.133 252.58 189.4C251.246 187.8 249.98 185.533 248.78 182.6C246.78 177.8 245.38 172.733 244.58 167.4C243.78 162.2 243.38 156.933 243.38 151.6C243.38 145.733 243.78 140 244.58 134.4C245.38 128.8 246.246 123.733 247.18 119.2C247.846 116 248.646 112.6 249.58 109C250.513 105.4 251.38 102.533 252.18 100.4C251.38 100.533 250.113 101 248.38 101.8C246.646 102.6 244.846 103.4 242.98 104.2C241.246 105 239.713 105.4 238.38 105.4C236.38 105.4 235.38 104.267 235.38 102C235.38 100.8 235.78 99.7333 236.58 98.8C237.513 97.8667 238.646 97.1333 239.98 96.6C242.646 95.4 245.58 94.5333 248.78 94C251.98 93.3333 254.113 92.6667 255.18 92L260.38 78.8C260.913 77.4667 261.846 75.3333 263.18 72.4C264.646 69.3333 266.313 66.0667 268.18 62.6C270.18 59.1333 272.113 56 273.98 53.2C275.446 51.0667 276.846 49.4 278.18 48.2C279.513 46.8667 280.98 46.2 282.58 46.2C284.98 46.2 286.18 47.1333 286.18 49C286.18 50.0667 285.713 51.6667 284.78 53.8C283.98 55.9333 282.446 58.7333 280.18 62.2C277.646 66.2 275.046 70.2 272.38 74.2C269.846 78.0667 267.646 82.1333 265.78 86.4C265.646 86.9333 265.313 87.8 264.78 89C264.38 90.0667 264.046 90.7333 263.78 91L267.78 90.4C268.846 90.2667 270.046 90.2 271.38 90.2C272.713 90.0667 274.18 90 275.78 90C278.046 90 280.18 90.1333 282.18 90.4C284.313 90.5333 286.046 90.8667 287.38 91.4C288.046 91.6667 288.646 92 289.18 92.4C289.846 92.6667 290.18 92.9333 290.18 93.2C290.18 93.7333 288.446 94 284.98 94C282.98 94 280.113 94.3333 276.38 95C272.78 95.6667 268.646 96.7333 263.98 98.2C261.713 98.8667 260.18 99.8 259.38 101C258.58 102.2 257.513 105.067 256.18 109.6C254.18 116.8 252.58 123.733 251.38 130.4C250.18 136.933 249.246 143.6 248.58 150.4C248.446 151.733 248.313 153.133 248.18 154.6C248.18 156.067 248.18 157.667 248.18 159.4C248.18 163.933 248.58 168.667 249.38 173.6C250.313 178.533 251.646 182.8 253.38 186.4C253.78 187.2 254.18 187.933 254.58 188.6C255.113 189.267 255.713 189.733 256.38 190C257.313 190.4 257.78 190.867 257.78 191.4C257.78 191.8 257.446 192 256.78 192ZM293.973 93.2C292.773 93.2 291.907 92.6 291.373 91.4C290.973 90.0667 290.773 89.1333 290.773 88.6C290.773 86.4667 291.373 84.4667 292.573 82.6C293.907 80.6 295.373 79.5333 296.973 79.4H297.573C299.173 79.4 300.24 79.8 300.773 80.6C301.44 81.2667 301.773 82.1333 301.773 83.2C301.773 85.2 300.907 87.4 299.173 89.8C297.44 92.0667 295.707 93.2 293.973 93.2ZM283.773 164.8C279.24 164.8 276.173 163.067 274.573 159.6C272.973 156.133 272.173 152.133 272.173 147.6C272.173 143.067 272.64 138.333 273.573 133.4C274.64 128.333 275.773 123.733 276.973 119.6C278.307 115.467 279.307 112.533 279.973 110.8C281.44 107.733 282.907 105.133 284.373 103C285.84 100.733 287.44 99.6 289.173 99.6C290.373 99.6 291.24 100.067 291.773 101C292.44 101.8 292.773 102.867 292.773 104.2C292.773 106.867 292.04 109.6 290.573 112.4C289.107 115.067 287.773 117.6 286.573 120C283.907 125.467 281.773 130.333 280.173 134.6C278.707 138.867 277.973 144.2 277.973 150.6C277.973 154.733 278.373 157.733 279.173 159.6C280.107 161.467 281.373 162.4 282.973 162.4C285.107 162.4 287.573 161.2 290.373 158.8C293.173 156.267 296.04 152.933 298.973 148.8C301.907 144.667 304.507 140.2 306.773 135.4C308.24 132.333 309.373 130.8 310.173 130.8C310.707 130.8 310.973 131.333 310.973 132.4C310.973 133.867 310.373 136 309.173 138.8C308.107 141.467 306.773 144.2 305.173 147C303.707 149.8 302.307 152 300.973 153.6C298.707 156.533 296.107 159.133 293.173 161.4C290.24 163.667 287.107 164.8 283.773 164.8ZM348.186 162.6C346.453 162.6 344.919 161.533 343.586 159.4C342.253 157.133 341.586 152.867 341.586 146.6C341.586 141.667 341.986 136.267 342.786 130.4C343.586 124.4 344.453 118.467 345.386 112.6C346.453 106.733 347.386 101.533 348.186 97C348.986 92.3333 349.386 88.9333 349.386 86.8C349.386 83.0667 348.253 81.2 345.986 81.2C343.853 81.2 341.653 82.2667 339.386 84.4C337.253 86.5333 335.186 89.1333 333.186 92.2C331.319 95.2667 329.653 98.2667 328.186 101.2C326.853 104 325.986 106.067 325.586 107.4C323.719 112.6 322.386 117.8 321.586 123C320.786 128.067 320.386 133.333 320.386 138.8C320.386 141.067 320.453 143.4 320.586 145.8C320.853 148.2 321.053 150.667 321.186 153.2C321.453 154.533 321.053 156.2 319.986 158.2C319.053 160.067 317.919 161 316.586 161C315.653 161 314.853 160.4 314.186 159.2C313.519 158 313.053 156.933 312.786 156C312.253 154.4 311.853 152.733 311.586 151C311.319 149.133 311.053 147.533 310.786 146.2C309.853 140.733 308.986 135.2 308.186 129.6C307.386 123.867 306.253 118.333 304.786 113C304.386 111.533 303.853 110 303.186 108.4C302.653 106.667 301.786 105.267 300.586 104.2C300.319 103.933 299.919 103.667 299.386 103.4C298.853 103 298.586 102.667 298.586 102.4C298.586 101.867 299.319 101.6 300.786 101.6C302.386 101.6 303.986 102.4 305.586 104C307.186 105.6 308.653 107.733 309.986 110.4C311.586 113.733 312.919 117.267 313.986 121C315.186 124.733 316.119 127.733 316.786 130C317.586 125.2 318.453 120.933 319.386 117.2C320.319 114 321.586 110.2 323.186 105.8C324.786 101.267 326.786 96.8667 329.186 92.6C331.586 88.2 334.453 84.6 337.786 81.8C341.119 78.8667 344.986 77.4 349.386 77.4C355.786 77.4 358.986 81.1333 358.986 88.6C358.986 92.4667 358.319 96.7333 356.986 101.4C355.653 105.933 354.186 110.133 352.586 114C351.119 117.867 350.119 120.533 349.586 122C348.919 123.867 348.186 126.4 347.386 129.6C346.719 132.8 346.119 136.133 345.586 139.6C345.186 143.067 344.986 146.267 344.986 149.2C344.986 151.733 345.253 153.867 345.786 155.6C346.453 157.2 347.453 158 348.786 158C350.119 158 351.319 157.4 352.386 156.2C353.453 154.867 354.319 153.667 354.986 152.6C355.786 151.533 356.186 151.333 356.186 152C356.453 154 355.719 156.267 353.986 158.8C352.386 161.333 350.453 162.6 348.186 162.6ZM364.213 239.4C358.879 239.4 354.346 237.8 350.612 234.6C346.746 231.533 344.812 227.4 344.812 222.2C344.812 217 347.279 210.933 352.212 204C357.146 197.067 365.479 189.867 377.213 182.4C379.879 180.533 382.679 178.867 385.613 177.4C388.679 175.933 391.813 174.4 395.013 172.8C395.813 172.4 396.413 172.2 396.813 172.2C397.346 172.2 397.613 172.4 397.613 172.8C397.613 173.733 396.679 174.733 394.813 175.8C388.413 179 382.946 182.333 378.413 185.8C374.013 189.4 369.946 193.6 366.213 198.4C364.213 200.933 362.079 203.867 359.813 207.2C357.679 210.667 355.879 214.067 354.412 217.4C352.812 220.733 352.012 223.733 352.012 226.4C352.012 232 354.679 234.8 360.013 234.8C362.279 234.8 364.946 234.133 368.013 232.8C371.079 231.6 374.413 229.6 378.013 226.8C387.079 219.733 393.479 211.867 397.213 203.2C400.946 194.667 402.813 184.667 402.813 173.2C402.813 164.667 402.013 155.2 400.413 144.8C398.946 134.133 398.146 123.933 398.013 114.2C397.346 118.333 396.213 123.333 394.613 129.2C393.146 134.933 391.346 140.4 389.213 145.6C387.079 150.8 384.679 155.267 382.013 159C379.479 162.733 376.213 164.6 372.213 164.6C369.413 164.6 367.013 163.2 365.013 160.4C363.146 157.6 362.213 153.333 362.213 147.6C362.213 143.333 362.946 138.267 364.412 132.4C365.879 126.533 367.879 120.867 370.413 115.4C372.946 109.8 375.746 105.2 378.813 101.6C382.013 97.8667 385.213 96 388.413 96C390.679 96 392.279 96.9333 393.213 98.8C394.279 100.533 394.813 102.333 394.813 104.2C394.813 105.667 394.546 106.933 394.013 108C393.479 109.067 392.679 109.6 391.613 109.6C390.546 109.467 389.746 109 389.213 108.2C388.813 107.267 388.413 106.4 388.013 105.6C387.613 104.667 386.879 104.2 385.813 104.2C383.679 104.2 381.613 105.6 379.613 108.4C377.746 111.067 376.013 114.6 374.413 119C372.946 123.267 371.746 127.8 370.813 132.6C370.013 137.4 369.613 141.8 369.613 145.8C369.613 149.533 370.013 152.6 370.813 155C371.746 157.4 373.146 158.667 375.013 158.8C377.279 158.933 379.479 157.467 381.613 154.4C383.746 151.333 385.679 147.4 387.413 142.6C389.279 137.8 390.879 132.733 392.213 127.4C393.679 121.933 394.879 116.867 395.813 112.2C396.879 107.4 397.613 103.667 398.013 101C399.079 93.9333 400.079 89.4667 401.013 87.6C401.946 85.6 402.946 84.6 404.013 84.6C404.946 84.6 405.746 85.4667 406.413 87.2C407.213 88.9333 407.613 90.5333 407.613 92C407.613 93.0667 407.546 93.8 407.413 94.2C405.813 103 405.013 112 405.013 121.2C405.013 125.067 405.146 128.933 405.413 132.8C405.679 136.533 406.013 140.267 406.413 144C407.213 151.733 407.613 158.933 407.613 165.6C407.613 179.2 406.213 190.667 403.413 200C400.746 209.467 397.213 217.067 392.813 222.8C388.413 228.667 383.679 232.867 378.613 235.4C373.679 238.067 368.879 239.4 364.213 239.4ZM527.147 204.6C520.614 204.6 514.347 201.733 508.347 196C502.48 190.267 497.68 181.933 493.947 171C490.214 160.2 488.347 147.133 488.347 131.8C488.347 129.933 488.347 128 488.347 126C488.48 124 488.614 121.933 488.747 119.8C487.414 119.933 486.08 120 484.747 120C483.547 120 482.414 120 481.347 120C473.614 120 467.947 119 464.347 117C460.88 115 459.147 112.4 459.147 109.2C459.147 106 460.68 102.467 463.747 98.6C466.947 94.7333 471.347 90.8 476.947 86.8C482.547 82.8 489.014 79.2 496.347 76C499.414 64.9333 503.414 53.2667 508.347 41C513.28 28.7333 519.414 15.9333 526.747 2.59999C527.68 0.866661 529.08 -2.38419e-06 530.947 -2.38419e-06C532.147 -2.38419e-06 533.214 0.399996 534.147 1.19999C535.08 1.99999 535.547 3.06666 535.547 4.39999C535.547 5.06665 535.347 5.93332 534.947 6.99999C533.88 9.13333 532.814 11.3333 531.747 13.6C530.68 15.7333 529.614 17.8667 528.547 20C530.547 19.6 532.08 19.4 533.147 19.4C534.214 19.4 535.48 19.3333 536.947 19.2C538.414 19.0667 540.68 18.8 543.747 18.4C548.014 17.7333 552.014 17.2 555.747 16.8C559.614 16.4 563.214 16.2 566.547 16.2C579.214 16.2 588.547 18.4 594.547 22.8C600.547 27.2 603.547 32.8 603.547 39.6C603.547 47.7333 599.614 56.6667 591.747 66.4C585.214 74.4 577.014 82.1333 567.147 89.6C557.414 97.0667 546.414 103.467 534.147 108.8C522.014 114 509.08 117.467 495.347 119.2C494.814 123.067 494.414 126.8 494.147 130.4C493.88 134 493.747 137.4 493.747 140.6C493.747 152.2 495.08 161.733 497.747 169.2C500.547 176.8 503.947 182.733 507.947 187C512.08 191.267 516.147 194.267 520.147 196C524.28 197.733 527.614 198.6 530.147 198.6C532.147 198.6 533.48 198.267 534.147 197.6C534.68 196.933 535.28 196.6 535.947 196.6C537.414 196.6 538.147 197.6 538.147 199.6C538.147 201.2 537.414 202.267 535.947 202.8C533.147 204 530.214 204.6 527.147 204.6ZM495.947 115.6C509.947 112.8 522.614 108.533 533.947 102.8C545.414 97.0667 555.547 90.4667 564.347 83C573.147 75.5333 580.547 67.7333 586.547 59.6C590.014 55.0667 592.48 51 593.947 47.4C595.414 43.6667 596.147 40.4 596.147 37.6C596.147 33.0667 594.547 29.4667 591.347 26.8C588.28 24 584.214 22 579.147 20.8C574.08 19.6 568.614 19 562.747 19C556.614 19 550.547 19.5333 544.547 20.6C538.547 21.6667 533.214 23.0667 528.547 24.8C527.614 25.2 526.814 25.2667 526.147 25C522.28 33.5333 518.747 41.7333 515.547 49.6C512.48 57.3333 509.747 64.7333 507.347 71.8C513.08 69.9333 519.08 68.3333 525.347 67C531.614 65.6667 538.08 64.8667 544.747 64.6H545.547C546.88 64.6 547.547 64.8667 547.547 65.4C547.547 65.8 546.88 66.2667 545.547 66.8C544.347 67.3333 542.28 67.6667 539.347 67.8C533.214 68.0667 527.414 68.8667 521.947 70.2C516.48 71.4 511.28 72.9333 506.347 74.8C503.814 82.5333 501.68 89.8 499.947 96.6C498.347 103.4 497.014 109.733 495.947 115.6ZM482.147 117.2C483.214 117.2 484.28 117.2 485.347 117.2C486.547 117.067 487.747 116.933 488.947 116.8C489.48 111.067 490.28 105.133 491.347 99C492.414 92.7333 493.814 86.2667 495.547 79.6C487.014 84 480.214 88.9333 475.147 94.4C470.08 99.7333 467.547 104.467 467.547 108.6C467.547 111.133 468.747 113.2 471.147 114.8C473.547 116.4 477.214 117.2 482.147 117.2ZM591.992 167C587.592 167 583.992 165.667 581.192 163C578.526 160.333 576.526 156.933 575.192 152.8C573.859 148.533 573.192 144.067 573.192 139.4C573.192 136.6 573.459 133.933 573.992 131.4C574.526 128.867 575.059 126.8 575.592 125.2C575.459 124.267 575.326 123.333 575.192 122.4C575.192 121.333 575.192 120.267 575.192 119.2C575.192 115.333 575.592 111.133 576.392 106.6C577.192 102.067 578.459 97.7333 580.192 93.6C582.059 89.4667 584.326 86.1333 586.992 83.6C589.792 80.9333 593.192 79.6 597.192 79.6C600.659 79.6 604.059 81.0667 607.392 84C610.726 86.8 613.659 90.9333 616.192 96.4C617.659 99.4667 618.659 102.8 619.192 106.4C619.859 109.867 620.192 113.4 620.192 117C620.192 121.933 619.659 126.867 618.592 131.8C617.659 136.6 616.259 141.133 614.392 145.4C613.059 148.467 611.259 151.733 608.992 155.2C606.859 158.533 604.392 161.333 601.592 163.6C598.792 165.867 595.592 167 591.992 167ZM592.992 162.6C597.526 162.6 601.726 159.467 605.592 153.2C608.392 148.8 610.392 143.8 611.592 138.2C612.792 132.467 613.392 126.733 613.392 121C613.392 116.733 613.126 112.6 612.592 108.6C612.059 104.6 611.259 100.733 610.192 97C609.259 93.6667 607.659 90.7333 605.392 88.2C603.259 85.5333 600.192 84.4 596.192 84.8C592.992 85.0667 590.192 86.6667 587.792 89.6C585.392 92.5333 583.526 95.8667 582.192 99.6C580.992 103.2 580.392 106.333 580.392 109C580.392 110.467 580.592 111.6 580.992 112.4C581.392 111.333 582.392 109.6 583.992 107.2C585.592 104.667 587.392 102.4 589.392 100.4C591.392 98.2667 593.259 97.2 594.992 97.2C596.459 97.2 597.192 97.8 597.192 99C595.459 99.1333 593.726 100.2 591.992 102.2C590.392 104.067 588.859 106.333 587.392 109C586.059 111.667 584.926 114.333 583.992 117C583.192 119.533 582.592 121.533 582.192 123C582.059 123.533 581.859 124.2 581.592 125C581.326 125.8 581.192 126.6 581.192 127.4C581.192 128.333 581.726 129.867 582.792 132C583.859 134 585.592 135.867 587.992 137.6C590.392 139.333 593.659 140.2 597.792 140.2C598.992 140.2 600.259 140.067 601.592 139.8C602.926 139.533 604.192 139.267 605.392 139L606.792 138.6C607.059 138.6 607.192 138.733 607.192 139C607.192 139.4 606.726 139.933 605.792 140.6C604.992 141.133 604.259 141.533 603.592 141.8C601.726 142.733 599.659 143.2 597.392 143.2C594.059 143.2 590.859 142.2 587.792 140.2C584.859 138.067 582.259 135.667 579.992 133C579.859 134.067 579.792 135.133 579.792 136.2C579.792 137.133 579.792 138.067 579.792 139C579.792 146.733 581.126 152.6 583.792 156.6C586.459 160.6 589.526 162.6 592.992 162.6ZM644.084 192C642.751 192 641.351 191.133 639.884 189.4C638.551 187.8 637.284 185.533 636.084 182.6C634.084 177.8 632.684 172.733 631.884 167.4C631.084 162.2 630.684 156.933 630.684 151.6C630.684 145.733 631.084 140 631.884 134.4C632.684 128.8 633.551 123.733 634.484 119.2C635.151 116 635.951 112.6 636.884 109C637.818 105.4 638.684 102.533 639.484 100.4C638.684 100.533 637.418 101 635.684 101.8C633.951 102.6 632.151 103.4 630.284 104.2C628.551 105 627.018 105.4 625.684 105.4C623.684 105.4 622.684 104.267 622.684 102C622.684 100.8 623.084 99.7333 623.884 98.8C624.818 97.8667 625.951 97.1333 627.284 96.6C629.951 95.4 632.884 94.5333 636.084 94C639.284 93.3333 641.418 92.6667 642.484 92L647.684 78.8C648.218 77.4667 649.151 75.3333 650.484 72.4C651.951 69.3333 653.618 66.0667 655.484 62.6C657.484 59.1333 659.418 56 661.284 53.2C662.751 51.0667 664.151 49.4 665.484 48.2C666.818 46.8667 668.284 46.2 669.884 46.2C672.284 46.2 673.484 47.1333 673.484 49C673.484 50.0667 673.018 51.6667 672.084 53.8C671.284 55.9333 669.751 58.7333 667.484 62.2C664.951 66.2 662.351 70.2 659.684 74.2C657.151 78.0667 654.951 82.1333 653.084 86.4C652.951 86.9333 652.618 87.8 652.084 89C651.684 90.0667 651.351 90.7333 651.084 91L655.084 90.4C656.151 90.2667 657.351 90.2 658.684 90.2C660.018 90.0667 661.484 90 663.084 90C665.351 90 667.484 90.1333 669.484 90.4C671.618 90.5333 673.351 90.8667 674.684 91.4C675.351 91.6667 675.951 92 676.484 92.4C677.151 92.6667 677.484 92.9333 677.484 93.2C677.484 93.7333 675.751 94 672.284 94C670.284 94 667.418 94.3333 663.684 95C660.084 95.6667 655.951 96.7333 651.284 98.2C649.018 98.8667 647.484 99.8 646.684 101C645.884 102.2 644.818 105.067 643.484 109.6C641.484 116.8 639.884 123.733 638.684 130.4C637.484 136.933 636.551 143.6 635.884 150.4C635.751 151.733 635.618 153.133 635.484 154.6C635.484 156.067 635.484 157.667 635.484 159.4C635.484 163.933 635.884 168.667 636.684 173.6C637.618 178.533 638.951 182.8 640.684 186.4C641.084 187.2 641.484 187.933 641.884 188.6C642.418 189.267 643.018 189.733 643.684 190C644.618 190.4 645.084 190.867 645.084 191.4C645.084 191.8 644.751 192 644.084 192Z" fill="white"/>
</svg>
